<svg width="163" height="164" viewBox="0 0 163 164" fill="none" xmlns="http://www.w3.org/2000/svg">
<path d="M156.5 57L156.5 107H109.192V57H156.5Z" fill="#F1F1F1"/>
<path d="M53.8077 7H81.5H109.192V57H53.8077V7Z" fill="#F1F1F1"/>
<path d="M109.192 107H53.8077V57H109.192V107Z" fill="#FDE800"/>
<path d="M156.5 107L156.5 157H109.192V107H156.5Z" fill="#F1F1F1"/>
<path d="M6.49998 157V107H53.8077V157L6.49998 157Z" fill="#F1F1F1"/>
<path d="M156.5 157L6.49998 157L53.8077 157V107H109.192V157H156.5Z" fill="#F1F1F1"/>
<path d="M6.49998 107V57H53.8077V107H6.49998Z" fill="#F1F1F1"/>
<path d="M6.49998 7H53.8077V57H6.49998V7Z" fill="#F1F1F1"/>
<path d="M109.192 7H156.5V57H109.192V7Z" fill="#F1F1F1"/>
<path d="M156.5 107L156.5 57H162.5V107H156.5Z" fill="#FDE800"/>
<path d="M0.5 107V57.0001L6.49998 57V107L0.5 107Z" fill="#FDE800"/>
<path d="M53.8077 1H109.192V7H81.5H53.8077V1Z" fill="#FDE800"/>
<path d="M53.8077 157H109.192L109.192 163H53.8078L53.8077 157Z" fill="#FDE800"/>
<path d="M156.5 7L156.5 157M156.5 7V57M156.5 7H109.192M156.5 7H81.5M6.49998 7V157M6.49998 7H53.8077M6.49998 7V57M6.49998 7H81.5M156.5 57H109.192M156.5 57L156.5 107M156.5 57H162.5V107H156.5M6.49998 57H109.192M6.49998 57V107M6.49998 57H53.8077M6.49998 57L0.5 57.0001V107L6.49998 107M156.5 107L156.5 157M156.5 107H109.192M6.49998 107V157M6.49998 107H53.8077M109.192 157V107M109.192 157H156.5M109.192 157H53.8077M109.192 157L109.192 163H53.8078L53.8077 157M109.192 7V57M109.192 7V1H53.8077V7M109.192 7H81.5M53.8077 157V107M53.8077 157L6.49998 157M53.8077 7V57M53.8077 7H81.5M156.5 157L6.49998 157M53.8077 107H109.192M53.8077 107V57M109.192 107V57M109.192 57H53.8077" stroke="black" stroke-linecap="round" stroke-linejoin="round"/>
</svg>
