<svg width="152" height="164" viewBox="0 0 152 164" fill="none" xmlns="http://www.w3.org/2000/svg">
<path d="M151 57V107H101V57H151Z" fill="#FDE800"/>
<path d="M51 7H101L101 57H51V7Z" fill="#F1F1F1"/>
<path d="M101 107H51V57H101V107Z" fill="#FDE800"/>
<path d="M151 107V157L101 157V107H151Z" fill="#F1F1F1"/>
<path d="M1 157V107H51V157L1 157Z" fill="#F1F1F1"/>
<path d="M151 157H1L51 157V107H101V157L151 157Z" fill="#F1F1F1"/>
<path d="M1 107V57H51V107H1Z" fill="#FDE800"/>
<path d="M1 7H51V57H1V7Z" fill="#F1F1F1"/>
<path d="M101 7H151V57H101L101 7Z" fill="#F1F1F1"/>
<path d="M51 157H101V163H51L51 157Z" fill="#FDE800"/>
<path d="M101 7H51V1H101V7Z" fill="#FDE800"/>
<path d="M151 7H1M151 7V157M151 7V57M151 7H101M1 7V157M1 7H51M1 7V57M151 57H101M151 57V107M1 57H101M1 57V107M1 57H51M151 107V157M151 107H101M1 107V157M1 107H51M101 157V107M101 157L151 157M101 157H51M101 157V163H51L51 157M101 7L101 57M101 7H51M101 7V1H51V7M51 157V107M51 157L1 157M51 7V57M151 157H1M51 107H101M51 107V57M101 107V57M101 57H51" stroke="black" stroke-linecap="round" stroke-linejoin="round"/>
</svg>
