<svg width="158" height="158" viewBox="0 0 158 158" fill="none" xmlns="http://www.w3.org/2000/svg">
<path d="M157 57V107H110.8V57H157Z" fill="#FDE800"/>
<path d="M59.6 7H110.8V57H59.6V7Z" fill="#F1F1F1"/>
<path d="M110.8 107H59.6V57H110.8V107Z" fill="#FDE800"/>
<path d="M157 107V157H110.8V107H157Z" fill="#F1F1F1"/>
<path d="M7 157V107L59.6 107V157H7Z" fill="#F1F1F1"/>
<path d="M157 157H7H59.6V107H110.8V157H157Z" fill="#FDE800"/>
<path d="M7 107V57H59.6V107L7 107Z" fill="#F1F1F1"/>
<path d="M7 7H59.6V57H7V7Z" fill="#F1F1F1"/>
<path d="M110.8 7H157V57H110.8V7Z" fill="#F1F1F1"/>
<path d="M1 107V57.0001L7 57V107H1Z" fill="#FDE800"/>
<path d="M59.6 1H110.8V7H59.6V1Z" fill="#FDE800"/>
<path d="M157 7H7M157 7V157M157 7V57M157 7H110.8M7 7V157M7 7H59.6M7 7V57M157 57H110.8M157 57V107M7 57H110.8M7 57V107M7 57H59.6M7 57L1 57.0001V107H7M157 107V157M157 107H110.8M7 107V157M7 107L59.6 107M110.8 7V57M110.8 7H59.6M110.8 7V1H59.6V7M59.6 7V57M157 157H7M157 157H110.8V107M7 157H59.6V107M59.6 107H110.8M59.6 107V57M110.8 107V57M110.8 57H59.6" stroke="black" stroke-linecap="round" stroke-linejoin="round"/>
</svg>
