<svg width="28" height="23" viewBox="0 0 28 23" fill="none" xmlns="http://www.w3.org/2000/svg">
<path d="M4 1V3.46143V16.9999L14 21V5L4 1Z" fill="white"/>
<path d="M24 1V3.46143V16.9999L14 21V5L24 1Z" fill="white"/>
<path d="M4 1V16.9999M4 1L14 5M4 1V3.46143M4 16.9999L14 21M4 16.9999V3.46143M14 21V5M14 21L24 16.9999M14 5L24 1M4 3.46143L2.15206 3.17713C1.5463 3.08394 1 3.55262 1 4.1655V19.142C1 19.6355 1.36011 20.0553 1.84794 20.1303L13.8479 21.9765C13.9487 21.992 14.0513 21.992 14.1521 21.9765L26.1521 20.1303C26.6399 20.0553 27 19.6355 27 19.142V4.1655C27 3.55262 26.4537 3.08394 25.8479 3.17713L24 3.46143M24 1V16.9999M24 1V3.46143M24 16.9999V3.46143" stroke="black" stroke-width="2" stroke-linecap="round" stroke-linejoin="round"/>
<path d="M18.6725 12.3846V11.0513C19.7343 10.7468 20.595 9.60458 20.595 8.5C20.595 7.39543 19.7343 6.7468 18.6725 7.05126C17.6107 7.35572 16.75 8.49797 16.75 9.60255M18.6725 15.718V15.0513" stroke="black" stroke-width="2" stroke-linecap="round" stroke-linejoin="round"/>
</svg>
