<svg width="32" height="25" viewBox="0 0 32 25" fill="none" xmlns="http://www.w3.org/2000/svg">
<path d="M27.1163 10L30.1163 15H26.9358H24.1163L27.1163 10Z" fill="#393939"/>
<path d="M5.13379 15L2.13379 10L5.31434 10H8.13379L5.13379 15Z" fill="#393939"/>
<path d="M16.1336 1V0V1ZM7.20481 17.545C6.95349 17.0532 6.35108 16.8582 5.85929 17.1095C5.3675 17.3608 5.17256 17.9633 5.42387 18.455L7.20481 17.545ZM25.0453 7.45505C25.2966 7.94684 25.899 8.14179 26.3908 7.89047C26.8826 7.63915 27.0776 7.03675 26.8263 6.54495L25.0453 7.45505ZM30.1163 15V16C30.4766 16 30.809 15.8062 30.9865 15.4927C31.164 15.1792 31.1592 14.7944 30.9738 14.4855L30.1163 15ZM27.1163 10L27.9738 9.4855C27.7931 9.1843 27.4676 9 27.1163 9C26.7651 9 26.4396 9.1843 26.2588 9.4855L27.1163 10ZM24.1163 15L23.2588 14.4855C23.0735 14.7944 23.0686 15.1792 23.2461 15.4927C23.4236 15.8062 23.7561 16 24.1163 16V15ZM2.13379 10L2.13379 9C1.77352 9 1.44109 9.19379 1.26359 9.5073C1.08608 9.82081 1.09094 10.2056 1.2763 10.5145L2.13379 10ZM5.13379 15L4.2763 15.5145C4.45702 15.8157 4.78253 16 5.13379 16C5.48505 16 5.81056 15.8157 5.99128 15.5145L5.13379 15ZM8.13379 10L8.99128 10.5145C9.17664 10.2056 9.18149 9.82081 9.00399 9.5073C8.82648 9.19379 8.49406 9 8.13379 9V10ZM5.31434 10L5.31434 11H5.31434V10ZM5.42387 18.455C7.40827 22.3382 11.4507 25 16.1165 25V23C12.2304 23 8.86053 20.785 7.20481 17.545L5.42387 18.455ZM26.8263 6.54495C24.8419 2.66177 20.7995 1.78814e-07 16.1336 0V2C20.0197 2 23.3896 4.21504 25.0453 7.45505L26.8263 6.54495ZM30.9738 14.4855L27.9738 9.4855L26.2588 10.5145L29.2588 15.5145L30.9738 14.4855ZM26.2588 9.4855L23.2588 14.4855L24.9738 15.5145L27.9738 10.5145L26.2588 9.4855ZM1.2763 10.5145L4.2763 15.5145L5.99128 14.4855L2.99128 9.4855L1.2763 10.5145ZM5.99128 15.5145L8.99128 10.5145L7.2763 9.4855L4.2763 14.4855L5.99128 15.5145ZM24.1163 16H26.9358V14H24.1163V16ZM26.9358 16H30.1163V14H26.9358V16ZM25.9522 14.8197C25.099 19.473 21.0191 23 16.1165 23V25C22.0012 25 26.8952 20.7668 27.9194 15.1803L25.9522 14.8197ZM8.13379 9H5.31434V11H8.13379V9ZM5.31434 9L2.13379 9L2.13379 11L5.31434 11L5.31434 9ZM6.29794 10.1803C7.1511 5.52703 11.231 2 16.1336 2V0C10.2489 -2.38419e-07 5.35498 4.23316 4.33073 9.81966L6.29794 10.1803Z" fill="#393939"/>
</svg>
