<svg width="164" height="163" viewBox="0 0 164 163" fill="none" xmlns="http://www.w3.org/2000/svg">
<path d="M57 156.5L107 156.5L107 106.5L57 106.5L57 156.5Z" fill="#FDE800"/>
<path d="M7.03804 56.5005L7.03852 106.5L57 106.5L57 56.5005L7.03804 56.5005Z" fill="#FDE800"/>
<path d="M107 106.5L107 56.5005L57 56.5005L57 106.5L107 106.5Z" fill="#FDE800"/>
<path d="M107 156.5L157 156.5L157 106.5L107 106.5L107 156.5Z" fill="#FDE800"/>
<path d="M157 6.50029L107 6.50029L107 56.5005L157 56.5005L157 6.50029Z" fill="#FDE800"/>
<path d="M157 156.5L157 6.50029L157 56.5005L107 56.5005L107 106.5L157 106.5L157 156.5Z" fill="#FDE800"/>
<path d="M107 6.50029L57 6.50026L57 56.5005L107 56.5005L107 6.50029Z" fill="#FDE800"/>
<path d="M6.99951 6.50021L7.03804 56.5005L57 56.5005L57 6.50026L6.99951 6.50021Z" fill="#FDE800"/>
<path d="M7.03852 106.5L7.03852 156.5L57 156.5L57 106.5L7.03852 106.5Z" fill="#FDE800"/>
<path d="M57 156.5L7.03852 156.5L7.03852 162.5L32.0193 162.5L57 162.5L57 156.5Z" fill="#FF8080"/>
<path d="M1.00001 6.50021L1 56.5005L7.03804 56.5005L6.99951 6.50021L1.00001 6.50021Z" fill="#A5ADFF"/>
<path d="M157 106.5L157 156.5L163 156.5L163 106.5L157 106.5Z" fill="#82EC89"/>
<path d="M157 56.5005L157 106.5L163 106.5L163 56.5004L157 56.5005Z" fill="#A5ADFF"/>
<path d="M157 6.50029L157 56.5005L163 56.5004L163 6.50019L157 6.50029Z" fill="#82EC89"/>
<path d="M1.03846 106.5L1.03846 156.5L7.03852 156.5L7.03852 106.5L1.03846 106.5Z" fill="#A5ADFF"/>
<path d="M1.03849 56.5005L1.03846 106.5L7.03852 106.5L7.03804 56.5005L1.03849 56.5005Z" fill="#82EC89"/>
<path d="M107 156.5L57.0385 156.5L57.0385 162.5L107 162.5L107 156.5Z" fill="#FFCE80"/>
<path d="M157 156.5L107.038 156.5L107.038 162.5L157 162.5L157 156.5Z" fill="#FF8080"/>
<path d="M56.961 0.500199L6.99951 0.500198L6.99951 6.50021L56.961 6.50021L56.961 0.500199Z" fill="#FFCE80"/>
<path d="M106.961 0.5002L56.9995 0.500199L57 6.50026L106.961 6.50021L106.961 0.5002Z" fill="#FF8080"/>
<path d="M156.961 0.500307L106.999 0.500306L107 6.50029L156.961 6.50031L156.961 0.500307Z" fill="#FFCE80"/>
<path d="M7.03852 156.5L6.99951 6.50021M7.03852 156.5L157 156.5M7.03852 156.5L57 156.5M7.03852 156.5L7.03852 106.5M7.03852 156.5L7.03852 162.5L32.0193 162.5L57 162.5L57 156.5M7.03852 156.5L1.03846 156.5L1.03846 106.5M6.99951 6.50021L157 6.50029M6.99951 6.50021L7.03804 56.5005M6.99951 6.50021L57 6.50026M6.99951 6.50021L1.00001 6.50021L1 56.5005L7.03804 56.5005M6.99951 6.50021L6.99951 0.500198M6.99951 6.50021L56.961 6.50021L56.961 0.500199M57 156.5L57 106.5M57 156.5L107 156.5M57 6.50026L57 106.5M57 6.50026L107 6.50029M57 6.50026L57 56.5005M57 6.50026L56.9995 0.500199L106.961 0.5002M57 6.50026L106.961 6.50021L106.961 0.5002M107 156.5L157 156.5M107 156.5L107 106.5M107 156.5L57.0385 156.5L57.0385 162.5L107 162.5L107 156.5ZM107 6.50029L157 6.50029M107 6.50029L107 56.5005M107 6.50029L106.999 0.500306L156.961 0.500307M107 6.50029L156.961 6.50031L156.961 0.500307M157 106.5L107 106.5M157 106.5L157 156.5M157 106.5L157 56.5005M157 106.5L163 106.5M7.03852 106.5L57 106.5M7.03852 106.5L7.03804 56.5005M7.03852 106.5L1.03846 106.5M157 56.5005L107 56.5005M157 56.5005L157 6.50029M157 56.5005L163 56.5004M7.03804 56.5005L57 56.5005M7.03804 56.5005L1.03849 56.5005L1.03846 106.5M157 156.5L157 6.50029M157 156.5L163 156.5L163 106.5M157 156.5L107.038 156.5L107.038 162.5L157 162.5L157 156.5ZM157 6.50029L163 6.50019L163 56.5004M107 56.5005L107 106.5M107 56.5005L57 56.5005M107 106.5L57 106.5M57 106.5L57 56.5005M163 106.5L163 56.5004M6.99951 0.500198L156.961 0.500307M6.99951 0.500198L56.961 0.500199M56.961 0.500199L106.961 0.5002M106.961 0.5002L156.961 0.500307" stroke="black" stroke-linecap="round" stroke-linejoin="round"/>
<path d="M81.4569 139.597C82.0427 140.183 82.9925 140.183 83.5782 139.597L93.1242 130.051C93.71 129.466 93.71 128.516 93.1242 127.93C92.5384 127.344 91.5886 127.344 91.0029 127.93L82.5176 136.415L74.0323 127.93C73.4465 127.344 72.4968 127.344 71.911 127.93C71.3252 128.516 71.3252 129.466 71.911 130.051L81.4569 139.597ZM83.5782 22.44C82.9924 21.8542 82.0427 21.8542 81.4569 22.44L71.911 31.9859C71.3252 32.5717 71.3252 33.5215 71.911 34.1073C72.4968 34.693 73.4465 34.693 74.0323 34.1073L82.5176 25.622L91.0029 34.1073C91.5886 34.693 92.5384 34.693 93.1242 34.1073C93.71 33.5215 93.71 32.5717 93.1242 31.9859L83.5782 22.44ZM84.0176 138.537L84.0176 23.5007L81.0176 23.5007L81.0176 138.537L84.0176 138.537Z" fill="black"/>
<path d="M23.9393 79.9579C23.3536 80.5437 23.3536 81.4934 23.9393 82.0792L33.4853 91.6252C34.0711 92.2109 35.0208 92.2109 35.6066 91.6252C36.1924 91.0394 36.1924 90.0896 35.6066 89.5038L27.1213 81.0186L35.6066 72.5333C36.1924 71.9475 36.1924 70.9977 35.6066 70.412C35.0208 69.8262 34.0711 69.8262 33.4853 70.412L23.9393 79.9579ZM141.097 82.0792C141.682 81.4934 141.682 80.5437 141.097 79.9579L131.551 70.412C130.965 69.8262 130.015 69.8262 129.429 70.412C128.844 70.9977 128.844 71.9475 129.429 72.5333L137.915 81.0186L129.429 89.5038C128.844 90.0896 128.844 91.0394 129.429 91.6252C130.015 92.2109 130.965 92.2109 131.551 91.6252L141.097 82.0792ZM25 82.5186L140.036 82.5186L140.036 79.5186L25 79.5186L25 82.5186Z" fill="black"/>
</svg>
