<svg width="163" height="163" viewBox="0 0 163 163" fill="none" xmlns="http://www.w3.org/2000/svg">
<path d="M56.5 156L106.5 156L106.5 106L56.5 106L56.5 156Z" fill="#FDE800"/>
<path d="M6.53804 56.0005L6.53852 106L56.5 106L56.5 56.0005L6.53804 56.0005Z" fill="#FDE800"/>
<path d="M106.5 106L106.5 56.0005L56.5 56.0005L56.5 106L106.5 106Z" fill="#FDE800"/>
<path d="M106.5 156L156.5 156L156.5 106L106.5 106L106.5 156Z" fill="#FDE800"/>
<path d="M156.5 6.00029L106.5 6.00029L106.5 56.0005L156.5 56.0005L156.5 6.00029Z" fill="#FDE800"/>
<path d="M156.5 156L156.5 6.00029L156.5 56.0005L106.5 56.0005L106.5 106L156.5 106L156.5 156Z" fill="#FDE800"/>
<path d="M106.5 6.00029L56.5 6.00026L56.5 56.0005L106.5 56.0005L106.5 6.00029Z" fill="#FDE800"/>
<path d="M6.49951 6.00021L6.53804 56.0005L56.5 56.0005L56.5 6.00026L6.49951 6.00021Z" fill="#FDE800"/>
<path d="M6.53852 106L6.53852 156L56.5 156L56.5 106L6.53852 106Z" fill="#FDE800"/>
<path d="M56.5 156L6.53852 156L6.53852 162L31.5193 162L56.5 162L56.5 156Z" fill="#FF8080"/>
<path d="M0.500013 6.00021L0.500001 56.0005L6.53804 56.0005L6.49951 6.00021L0.500013 6.00021Z" fill="#A5ADFF"/>
<path d="M156.5 106L156.5 156L162.5 156L162.5 106L156.5 106Z" fill="#82EC89"/>
<path d="M156.5 56.0005L156.5 106L162.5 106L162.5 56.0004L156.5 56.0005Z" fill="#FF8080"/>
<path d="M156.5 6.00029L156.5 56.0005L162.5 56.0004L162.5 6.00019L156.5 6.00029Z" fill="#82EC89"/>
<path d="M0.53846 106L0.538459 156L6.53852 156L6.53852 106L0.53846 106Z" fill="#A5ADFF"/>
<path d="M0.538491 56.0005L0.53846 106L6.53852 106L6.53804 56.0005L0.538491 56.0005Z" fill="#FFCE80"/>
<path d="M106.5 156L56.5385 156L56.5385 162L106.5 162L106.5 156Z" fill="#82EC89"/>
<path d="M156.5 156L106.538 156L106.538 162L156.5 162L156.5 156Z" fill="#FF8080"/>
<path d="M56.461 0.000199032L6.49951 0.000198436L6.49951 6.00021L56.461 6.00021L56.461 0.000199032Z" fill="#FFCE80"/>
<path d="M106.461 0.000199628L56.4995 0.000199032L56.5 6.00026L106.461 6.00021L106.461 0.000199628Z" fill="#A5ADFF"/>
<path d="M156.461 0.000307036L106.499 0.00030644L106.5 6.00029L156.461 6.00031L156.461 0.000307036Z" fill="#FFCE80"/>
<path d="M6.53852 156L6.49951 6.00021M6.53852 156L156.5 156M6.53852 156L56.5 156M6.53852 156L6.53852 106M6.53852 156L6.53852 162L31.5193 162L56.5 162L56.5 156M6.53852 156L0.538459 156L0.53846 106M6.49951 6.00021L156.5 6.00029M6.49951 6.00021L6.53804 56.0005M6.49951 6.00021L56.5 6.00026M6.49951 6.00021L0.500013 6.00021L0.500001 56.0005L6.53804 56.0005M6.49951 6.00021L6.49951 0.000198436M6.49951 6.00021L56.461 6.00021L56.461 0.000199032M56.5 156L56.5 106M56.5 156L106.5 156M56.5 6.00026L56.5 106M56.5 6.00026L106.5 6.00029M56.5 6.00026L56.5 56.0005M56.5 6.00026L56.4995 0.000199032L106.461 0.000199628M56.5 6.00026L106.461 6.00021L106.461 0.000199628M106.5 156L156.5 156M106.5 156L106.5 106M106.5 156L56.5385 156L56.5385 162L106.5 162L106.5 156ZM106.5 6.00029L156.5 6.00029M106.5 6.00029L106.5 56.0005M106.5 6.00029L106.499 0.00030644L156.461 0.000307036M106.5 6.00029L156.461 6.00031L156.461 0.000307036M156.5 106L106.5 106M156.5 106L156.5 156M156.5 106L156.5 56.0005M156.5 106L162.5 106M6.53852 106L56.5 106M6.53852 106L6.53804 56.0005M6.53852 106L0.53846 106M156.5 56.0005L106.5 56.0005M156.5 56.0005L156.5 6.00029M156.5 56.0005L162.5 56.0004M6.53804 56.0005L56.5 56.0005M6.53804 56.0005L0.538491 56.0005L0.53846 106M156.5 156L156.5 6.00029M156.5 156L162.5 156L162.5 106M156.5 156L106.538 156L106.538 162L156.5 162L156.5 156ZM156.5 6.00029L162.5 6.00019L162.5 56.0004M106.5 56.0005L106.5 106M106.5 56.0005L56.5 56.0005M106.5 106L56.5 106M56.5 106L56.5 56.0005M162.5 106L162.5 56.0004M6.49951 0.000198436L156.461 0.000307036M6.49951 0.000198436L56.461 0.000199032M56.461 0.000199032L106.461 0.000199628M106.461 0.000199628L156.461 0.000307036" stroke="black" stroke-linecap="round" stroke-linejoin="round"/>
<path d="M86.3242 135.022C86.3242 135.85 86.9958 136.522 87.8242 136.522L101.324 136.522C102.153 136.522 102.824 135.85 102.824 135.022C102.824 134.194 102.153 133.522 101.324 133.522L89.3242 133.522L89.3242 121.522C89.3242 120.694 88.6526 120.022 87.8242 120.022C86.9958 120.022 86.3242 120.694 86.3242 121.522L86.3242 135.022ZM137.022 87.3241C137.022 86.4957 136.35 85.8241 135.522 85.8241L122.022 85.8241C121.194 85.8241 120.522 86.4957 120.522 87.3241C120.522 88.1526 121.194 88.8241 122.022 88.8241L134.022 88.8241L134.022 100.824C134.022 101.653 134.694 102.324 135.522 102.324C136.35 102.324 137.022 101.653 137.022 100.824L137.022 87.3241ZM88.8849 136.083L136.583 88.3848L134.461 86.2635L86.7636 133.961L88.8849 136.083Z" fill="black"/>
<path d="M26 74.6982C26 75.5267 26.6716 76.1982 27.5 76.1982L41 76.1982C41.8284 76.1982 42.5 75.5267 42.5 74.6982C42.5 73.8698 41.8284 73.1982 41 73.1982L29 73.1982L29 61.1982C29 60.3698 28.3284 59.6982 27.5 59.6982C26.6716 59.6982 26 60.3698 26 61.1982L26 74.6982ZM76.6978 27.0004C76.6978 26.172 76.0263 25.5004 75.1978 25.5004L61.6978 25.5004C60.8694 25.5004 60.1978 26.172 60.1978 27.0004C60.1978 27.8288 60.8694 28.5004 61.6978 28.5004L73.6978 28.5004L73.6978 40.5004C73.6978 41.3288 74.3694 42.0004 75.1978 42.0004C76.0263 42.0004 76.6978 41.3288 76.6978 40.5004L76.6978 27.0004ZM28.5607 75.7589L76.2585 28.0611L74.1372 25.9397L26.4393 73.6376L28.5607 75.7589Z" fill="black"/>
</svg>
