<svg width="164" height="163" viewBox="0 0 164 163" fill="none" xmlns="http://www.w3.org/2000/svg">
<path d="M57 156.5L107 156.5L107 106.5L57 106.5L57 156.5Z" fill="#FDE800"/>
<path d="M7.03804 56.5005L7.03852 106.5L57 106.5L57 56.5005L7.03804 56.5005Z" fill="#FDE800"/>
<path d="M107 106.5L107 56.5005L57 56.5005L57 106.5L107 106.5Z" fill="#FDE800"/>
<path d="M107 156.5L157 156.5L157 106.5L107 106.5L107 156.5Z" fill="#FDE800"/>
<path d="M157 6.50029L107 6.50029L107 56.5005L157 56.5005L157 6.50029Z" fill="#FDE800"/>
<path d="M157 156.5L157 6.50029L157 56.5005L107 56.5005L107 106.5L157 106.5L157 156.5Z" fill="#FDE800"/>
<path d="M107 6.50029L57 6.50026L57 56.5005L107 56.5005L107 6.50029Z" fill="#FDE800"/>
<path d="M6.99951 6.50021L7.03804 56.5005L57 56.5005L57 6.50026L6.99951 6.50021Z" fill="#FDE800"/>
<path d="M7.03852 106.5L7.03852 156.5L57 156.5L57 106.5L7.03852 106.5Z" fill="#FDE800"/>
<path d="M57 156.5L7.03852 156.5L7.03852 162.5L57 162.5L57 156.5Z" fill="#FFCE80"/>
<path d="M1.00001 6.50021L1 56.5005L7.03804 56.5005L6.99951 6.50021L1.00001 6.50021Z" fill="#82EC89"/>
<path d="M157 106.5L157 156.5L163 156.5L163 106.5L157 106.5Z" fill="#A5ADFF"/>
<path d="M157 56.5005L157 106.5L163 106.5L163 56.5004L157 56.5005Z" fill="#82EC89"/>
<path d="M157 6.50029L157 56.5005L163 56.5004L163 6.50019L157 6.50029Z" fill="#A5ADFF"/>
<path d="M1.03846 106.5L1.03846 156.5L7.03852 156.5L7.03852 106.5L1.03846 106.5Z" fill="#82EC89"/>
<path d="M1.03849 56.5005L1.03846 106.5L7.03852 106.5L7.03804 56.5005L1.03849 56.5005Z" fill="#FFCE80"/>
<path d="M107 156.5L57.0385 156.5L57.0385 162.5L107 162.5L107 156.5Z" fill="#A5ADFF"/>
<path d="M157 156.5L107.038 156.5L107.038 162.5L157 162.5L157 156.5Z" fill="#FFCE80"/>
<path d="M56.961 0.500199L6.99951 0.500198L6.99951 6.50021L56.961 6.50021L56.961 0.500199Z" fill="#FF8080"/>
<path d="M106.961 0.5002L56.9995 0.500199L57 6.50026L106.961 6.50021L106.961 0.5002Z" fill="#FF8080"/>
<path d="M156.961 0.500307L106.999 0.500306L107 6.50029L156.961 6.50031L156.961 0.500307Z" fill="#FF8080"/>
<path d="M7.03852 156.5L6.99951 6.50021M7.03852 156.5L157 156.5M7.03852 156.5L57 156.5M7.03852 156.5L7.03852 106.5M7.03852 156.5L7.03852 162.5L57 162.5L57 156.5M7.03852 156.5L1.03846 156.5L1.03846 106.5M6.99951 6.50021L157 6.50029M6.99951 6.50021L7.03804 56.5005M6.99951 6.50021L57 6.50026M6.99951 6.50021L1.00001 6.50021L1 56.5005L7.03804 56.5005M6.99951 6.50021L6.99951 0.500198M6.99951 6.50021L56.961 6.50021L56.961 0.500199M57 156.5L57 106.5M57 156.5L107 156.5M57 6.50026L57 106.5M57 6.50026L107 6.50029M57 6.50026L57 56.5005M57 6.50026L56.9995 0.500199L106.961 0.5002M57 6.50026L106.961 6.50021L106.961 0.5002M107 156.5L157 156.5M107 156.5L107 106.5M107 156.5L57.0385 156.5L57.0385 162.5L107 162.5L107 156.5ZM107 6.50029L157 6.50029M107 6.50029L107 56.5005M107 6.50029L106.999 0.500306L156.961 0.500307M107 6.50029L156.961 6.50031L156.961 0.500307M157 106.5L107 106.5M157 106.5L157 156.5M157 106.5L157 56.5005M157 106.5L163 106.5M7.03852 106.5L57 106.5M7.03852 106.5L7.03804 56.5005M7.03852 106.5L1.03846 106.5M157 56.5005L107 56.5005M157 56.5005L157 6.50029M157 56.5005L163 56.5004M7.03804 56.5005L57 56.5005M7.03804 56.5005L1.03849 56.5005L1.03846 106.5M157 156.5L157 6.50029M157 156.5L163 156.5L163 106.5M157 156.5L107.038 156.5L107.038 162.5L157 162.5L157 156.5ZM157 6.50029L163 6.50019L163 56.5004M107 56.5005L107 106.5M107 56.5005L57 56.5005M107 106.5L57 106.5M57 106.5L57 56.5005M163 106.5L163 56.5004M6.99951 0.500198L156.961 0.500307M6.99951 0.500198L56.961 0.500199M56.961 0.500199L106.961 0.5002M106.961 0.5002L156.961 0.500307" stroke="black" stroke-linecap="round" stroke-linejoin="round"/>
<path d="M133.681 77.0005C134.509 77.0005 135.181 76.3289 135.181 75.5005C135.181 74.6721 134.509 74.0005 133.681 74.0005V77.0005ZM35.62 74.4398C35.0342 75.0256 35.0342 75.9754 35.62 76.5611L45.1659 86.1071C45.7517 86.6929 46.7015 86.6929 47.2873 86.1071C47.8731 85.5213 47.8731 84.5716 47.2873 83.9858L38.802 75.5005L47.2873 67.0152C47.8731 66.4294 47.8731 65.4797 47.2873 64.8939C46.7015 64.3081 45.7517 64.3081 45.1659 64.8939L35.62 74.4398ZM133.681 74.0005H85.1807V77.0005H133.681V74.0005ZM85.1807 74.0005L36.6807 74.0005V77.0005L85.1807 77.0005V74.0005Z" fill="black"/>
<path d="M29.1307 86.2267C28.5863 85.6023 27.6387 85.5374 27.0143 86.0817C26.3899 86.6261 26.325 87.5737 26.8693 88.1981L29.1307 86.2267ZM77.6759 145.808C78.5023 145.864 79.2182 145.24 79.2749 144.414L80.1973 130.945C80.254 130.119 79.6298 129.403 78.8033 129.346C77.9769 129.29 77.261 129.914 77.2044 130.74L76.3844 142.712L64.4124 141.892C63.5859 141.836 62.87 142.46 62.8134 143.286C62.7568 144.113 63.3809 144.828 64.2074 144.885L77.6759 145.808ZM26.8693 88.1981L76.6477 145.297L78.909 143.325L29.1307 86.2267L26.8693 88.1981Z" fill="black"/>
<path d="M91.2416 141.918C90.7283 142.568 90.8393 143.511 91.4895 144.024C92.1397 144.538 93.0829 144.427 93.5963 143.777L91.2416 141.918ZM137.831 87.0373C137.734 86.2145 136.989 85.626 136.166 85.7228L122.758 87.3002C121.935 87.397 121.347 88.1424 121.444 88.9651C121.541 89.7879 122.286 90.3764 123.109 90.2796L135.027 88.8775L136.429 100.795C136.525 101.618 137.271 102.207 138.094 102.11C138.916 102.013 139.505 101.268 139.408 100.445L137.831 87.0373ZM93.5963 143.777L137.518 88.142L135.164 86.2831L91.2416 141.918L93.5963 143.777Z" fill="black"/>
</svg>
