<svg width="163" height="163" viewBox="0 0 163 163" fill="none" xmlns="http://www.w3.org/2000/svg">
<path d="M56.5 156.5L106.5 156.5L106.5 106.5L56.5 106.5L56.5 156.5Z" fill="#FDE800"/>
<path d="M6.53804 56.5005L6.53852 106.5L56.5 106.5L56.5 56.5005L6.53804 56.5005Z" fill="#FDE800"/>
<path d="M106.5 106.5L106.5 56.5005L56.5 56.5005L56.5 106.5L106.5 106.5Z" fill="#FDE800"/>
<path d="M106.5 156.5L156.5 156.5L156.5 106.5L106.5 106.5L106.5 156.5Z" fill="#FDE800"/>
<path d="M156.5 6.50029L106.5 6.50029L106.5 56.5005L156.5 56.5005L156.5 6.50029Z" fill="#FDE800"/>
<path d="M156.5 156.5L156.5 6.50029L156.5 56.5005L106.5 56.5005L106.5 106.5L156.5 106.5L156.5 156.5Z" fill="#FDE800"/>
<path d="M106.5 6.50029L56.5 6.50026L56.5 56.5005L106.5 56.5005L106.5 6.50029Z" fill="#FDE800"/>
<path d="M6.49951 6.50021L6.53804 56.5005L56.5 56.5005L56.5 6.50026L6.49951 6.50021Z" fill="#FDE800"/>
<path d="M6.53852 106.5L6.53852 156.5L56.5 156.5L56.5 106.5L6.53852 106.5Z" fill="#FDE800"/>
<path d="M56.5 156.5L6.53852 156.5L6.53852 162.5L56.5 162.5L56.5 156.5Z" fill="#FFCE80"/>
<path d="M0.500013 6.50021L0.500001 56.5005L6.53804 56.5005L6.49951 6.50021L0.500013 6.50021Z" fill="#82EC89"/>
<path d="M156.5 106.5L156.5 156.5L162.5 156.5L162.5 106.5L156.5 106.5Z" fill="#A5ADFF"/>
<path d="M156.5 56.5005L156.5 106.5L162.5 106.5L162.5 56.5004L156.5 56.5005Z" fill="#FFCE80"/>
<path d="M156.5 6.50029L156.5 56.5005L162.5 56.5004L162.5 6.50019L156.5 6.50029Z" fill="#A5ADFF"/>
<path d="M0.53846 106.5L0.538459 156.5L6.53852 156.5L6.53852 106.5L0.53846 106.5Z" fill="#82EC89"/>
<path d="M0.538491 56.5005L0.53846 106.5L6.53852 106.5L6.53804 56.5005L0.538491 56.5005Z" fill="#A5ADFF"/>
<path d="M106.5 156.5L56.5385 156.5L56.5385 162.5L106.5 162.5L106.5 156.5Z" fill="#82EC89"/>
<path d="M156.5 156.5L106.538 156.5L106.538 162.5L156.5 162.5L156.5 156.5Z" fill="#FFCE80"/>
<path d="M56.461 0.500199L6.49951 0.500198L6.49951 6.50021L56.461 6.50021L56.461 0.500199Z" fill="#FF8080"/>
<path d="M106.461 0.5002L56.4995 0.500199L56.5 6.50026L106.461 6.50021L106.461 0.5002Z" fill="#FF8080"/>
<path d="M156.461 0.500307L106.499 0.500306L106.5 6.50029L156.461 6.50031L156.461 0.500307Z" fill="#FF8080"/>
<path d="M6.53852 156.5L6.49951 6.50021M6.53852 156.5L156.5 156.5M6.53852 156.5L56.5 156.5M6.53852 156.5L6.53852 106.5M6.53852 156.5L6.53852 162.5L56.5 162.5L56.5 156.5M6.53852 156.5L0.538459 156.5L0.53846 106.5M6.49951 6.50021L156.5 6.50029M6.49951 6.50021L6.53804 56.5005M6.49951 6.50021L56.5 6.50026M6.49951 6.50021L0.500013 6.50021L0.500001 56.5005L6.53804 56.5005M6.49951 6.50021L6.49951 0.500198M6.49951 6.50021L56.461 6.50021L56.461 0.500199M56.5 156.5L56.5 106.5M56.5 156.5L106.5 156.5M56.5 6.50026L56.5 106.5M56.5 6.50026L106.5 6.50029M56.5 6.50026L56.5 56.5005M56.5 6.50026L56.4995 0.500199L106.461 0.5002M56.5 6.50026L106.461 6.50021L106.461 0.5002M106.5 156.5L156.5 156.5M106.5 156.5L106.5 106.5M106.5 156.5L56.5385 156.5L56.5385 162.5L106.5 162.5L106.5 156.5ZM106.5 6.50029L156.5 6.50029M106.5 6.50029L106.5 56.5005M106.5 6.50029L106.499 0.500306L156.461 0.500307M106.5 6.50029L156.461 6.50031L156.461 0.500307M156.5 106.5L106.5 106.5M156.5 106.5L156.5 156.5M156.5 106.5L156.5 56.5005M156.5 106.5L162.5 106.5M6.53852 106.5L56.5 106.5M6.53852 106.5L6.53804 56.5005M6.53852 106.5L0.53846 106.5M156.5 56.5005L106.5 56.5005M156.5 56.5005L156.5 6.50029M156.5 56.5005L162.5 56.5004M6.53804 56.5005L56.5 56.5005M6.53804 56.5005L0.538491 56.5005L0.53846 106.5M156.5 156.5L156.5 6.50029M156.5 156.5L162.5 156.5L162.5 106.5M156.5 156.5L106.538 156.5L106.538 162.5L156.5 162.5L156.5 156.5ZM156.5 6.50029L162.5 6.50019L162.5 56.5004M106.5 56.5005L106.5 106.5M106.5 56.5005L56.5 56.5005M106.5 106.5L56.5 106.5M56.5 106.5L56.5 56.5005M162.5 106.5L162.5 56.5004M6.49951 0.500198L156.461 0.500307M6.49951 0.500198L56.461 0.500199M56.461 0.500199L106.461 0.5002M106.461 0.5002L156.461 0.500307" stroke="black" stroke-linecap="round" stroke-linejoin="round"/>
<path d="M30.1602 78.0005C29.3317 78.0005 28.6602 77.3289 28.6602 76.5005C28.6602 75.6721 29.3317 75.0005 30.1602 75.0005V78.0005ZM128.221 75.4398C128.807 76.0256 128.807 76.9754 128.221 77.5611L118.675 87.1071C118.089 87.6929 117.139 87.6929 116.554 87.1071C115.968 86.5213 115.968 85.5716 116.554 84.9858L125.039 76.5005L116.554 68.0152C115.968 67.4294 115.968 66.4797 116.554 65.8939C117.139 65.3081 118.089 65.3081 118.675 65.8939L128.221 75.4398ZM30.1602 75.0005H78.6602V78.0005H30.1602V75.0005ZM78.6602 75.0005L127.16 75.0005V78.0005L78.6602 78.0005V75.0005Z" fill="black"/>
<path d="M134.71 87.2267C135.255 86.6023 136.202 86.5374 136.827 87.0817C137.451 87.6261 137.516 88.5737 136.971 89.1981L134.71 87.2267ZM86.165 146.808C85.3385 146.864 84.6226 146.24 84.566 145.414L83.6435 131.945C83.5869 131.119 84.211 130.403 85.0375 130.346C85.864 130.29 86.5799 130.914 86.6365 131.74L87.4565 143.712L99.4284 142.892C100.255 142.836 100.971 143.46 101.027 144.286C101.084 145.113 100.46 145.828 99.6334 145.885L86.165 146.808ZM136.971 89.1981L87.1931 146.297L84.9318 144.325L134.71 87.2267L136.971 89.1981Z" fill="black"/>
<path d="M72.5992 142.918C73.1125 143.568 73.0016 144.511 72.3513 145.024C71.7011 145.538 70.7579 145.427 70.2446 144.777L72.5992 142.918ZM26.0101 88.0373C26.1069 87.2145 26.8523 86.626 27.6751 86.7228L41.0826 88.3002C41.9053 88.397 42.4938 89.1424 42.3971 89.9651C42.3003 90.7879 41.5548 91.3764 40.7321 91.2796L28.8143 89.8775L27.4122 101.795C27.3154 102.618 26.5699 103.207 25.7472 103.11C24.9244 103.013 24.3359 102.268 24.4327 101.445L26.0101 88.0373ZM70.2446 144.777L26.3225 89.142L28.6771 87.2831L72.5992 142.918L70.2446 144.777Z" fill="black"/>
</svg>
