<svg width="164" height="163" viewBox="0 0 164 163" fill="none" xmlns="http://www.w3.org/2000/svg">
<path d="M57 156L107 156L107 106L57 106L57 156Z" fill="#FDE800"/>
<path d="M7.03804 56.0005L7.03852 106L57 106L57 56.0005L7.03804 56.0005Z" fill="#FDE800"/>
<path d="M107 106L107 56.0005L57 56.0005L57 106L107 106Z" fill="#FDE800"/>
<path d="M107 156L157 156L157 106L107 106L107 156Z" fill="#FDE800"/>
<path d="M157 6.00029L107 6.00029L107 56.0005L157 56.0005L157 6.00029Z" fill="#FDE800"/>
<path d="M157 156L157 6.00029L157 56.0005L107 56.0005L107 106L157 106L157 156Z" fill="#FDE800"/>
<path d="M107 6.00029L57 6.00026L57 56.0005L107 56.0005L107 6.00029Z" fill="#FDE800"/>
<path d="M6.99951 6.00021L7.03804 56.0005L57 56.0005L57 6.00026L6.99951 6.00021Z" fill="#FDE800"/>
<path d="M7.03852 106L7.03852 156L57 156L57 106L7.03852 106Z" fill="#FDE800"/>
<path d="M57 156L7.03852 156L7.03852 162L57 162L57 156Z" fill="#FF8080"/>
<path d="M1.00001 6.00021L1 56.0005L7.03804 56.0005L6.99951 6.00021L1.00001 6.00021Z" fill="#80FF88"/>
<path d="M157 106L157 156L163 156L163 131L163 106L157 106Z" fill="#A5ADFF"/>
<path d="M157 56.0005L157 106L163 106L163 56.0004L157 56.0005Z" fill="#80FF88"/>
<path d="M157 6.00029L157 56.0005L163 56.0004L163 6.00019L157 6.00029Z" fill="#80FF88"/>
<path d="M1.03846 106L1.03846 156L7.03852 156L7.03852 106L1.03846 106Z" fill="#A5ADFF"/>
<path d="M1.03849 56.0005L1.03846 106L7.03852 106L7.03804 56.0005L1.03849 56.0005Z" fill="#A5ADFF"/>
<path d="M107 156L57.0385 156L57.0385 162L107 162L107 156Z" fill="#FF8080"/>
<path d="M157 156L107.038 156L107.038 162L157 162L157 156Z" fill="#FFCE80"/>
<path d="M56.961 0.000199032L6.99951 0.000198436L6.99951 6.00021L56.961 6.00021L56.961 0.000199032Z" fill="#FF8080"/>
<path d="M106.961 0.000199628L56.9995 0.000199032L57 6.00026L106.961 6.00021L106.961 0.000199628Z" fill="#FFCE80"/>
<path d="M156.961 0.000307036L106.999 0.00030644L107 6.00029L156.961 6.00031L156.961 0.000307036Z" fill="#FFCE80"/>
<path d="M7.03852 156L6.99951 6.00021M7.03852 156L157 156M7.03852 156L57 156M7.03852 156L7.03852 106M7.03852 156L7.03852 162L57 162L57 156M7.03852 156L1.03846 156L1.03846 106M6.99951 6.00021L157 6.00029M6.99951 6.00021L7.03804 56.0005M6.99951 6.00021L57 6.00026M6.99951 6.00021L1.00001 6.00021L1 56.0005L7.03804 56.0005M6.99951 6.00021L6.99951 0.000198436M6.99951 6.00021L56.961 6.00021L56.961 0.000199032M57 156L57 106M57 156L107 156M57 6.00026L57 106M57 6.00026L107 6.00029M57 6.00026L57 56.0005M57 6.00026L56.9995 0.000199032L106.961 0.000199628M57 6.00026L106.961 6.00021L106.961 0.000199628M107 156L157 156M107 156L107 106M107 156L57.0385 156L57.0385 162L107 162L107 156ZM107 6.00029L157 6.00029M107 6.00029L107 56.0005M107 6.00029L106.999 0.00030644L156.961 0.000307036M107 6.00029L156.961 6.00031L156.961 0.000307036M157 106L107 106M157 106L157 156M157 106L157 56.0005M157 106L163 106M7.03852 106L57 106M7.03852 106L7.03804 56.0005M7.03852 106L1.03846 106M157 56.0005L107 56.0005M157 56.0005L157 6.00029M157 56.0005L163 56.0004M7.03804 56.0005L57 56.0005M7.03804 56.0005L1.03849 56.0005L1.03846 106M157 156L157 6.00029M157 156L163 156L163 131L163 106M157 156L107.038 156L107.038 162L157 162L157 156ZM157 6.00029L163 6.00019L163 56.0004M107 56.0005L107 106M107 56.0005L57 56.0005M107 106L57 106M57 106L57 56.0005M163 106L163 56.0004M6.99951 0.000198436L156.961 0.000307036M6.99951 0.000198436L56.961 0.000199032M56.961 0.000199032L106.961 0.000199628M106.961 0.000199628L156.961 0.000307036" stroke="black" stroke-linecap="round" stroke-linejoin="round"/>
<path d="M140.842 141.342C141.67 141.342 142.342 140.671 142.342 139.842L142.342 126.342C142.342 125.514 141.67 124.842 140.842 124.842C140.013 124.842 139.342 125.514 139.342 126.342L139.342 138.342L127.342 138.342C126.513 138.342 125.842 139.014 125.842 139.842C125.842 140.671 126.513 141.342 127.342 141.342L140.842 141.342ZM23.0001 20.5006C22.1717 20.5006 21.5001 21.1722 21.5001 22.0006L21.5001 35.5006C21.5001 36.329 22.1717 37.0006 23.0001 37.0006C23.8285 37.0006 24.5001 36.329 24.5001 35.5006L24.5001 23.5006L36.5001 23.5006C37.3285 23.5006 38.0001 22.829 38.0001 22.0006C38.0001 21.1722 37.3285 20.5006 36.5001 20.5006L23.0001 20.5006ZM141.902 138.782L24.0608 20.9399L21.9394 23.0612L139.781 140.903L141.902 138.782Z" fill="black"/>
</svg>
