<svg width="164" height="163" viewBox="0 0 164 163" fill="none" xmlns="http://www.w3.org/2000/svg">
<path d="M57 156L107 156L107 106L57 106L57 156Z" fill="#FDE800"/>
<path d="M7.03804 56.0005L7.03852 106L57 106L57 56.0005L7.03804 56.0005Z" fill="#FDE800"/>
<path d="M107 106L107 56.0005L57 56.0005L57 106L107 106Z" fill="#FDE800"/>
<path d="M107 156L157 156L157 106L107 106L107 156Z" fill="#FDE800"/>
<path d="M157 6.00029L107 6.00029L107 56.0005L157 56.0005L157 6.00029Z" fill="#FDE800"/>
<path d="M157 156L157 6.00029L157 56.0005L107 56.0005L107 106L157 106L157 156Z" fill="#FDE800"/>
<path d="M107 6.00029L57 6.00026L57 56.0005L107 56.0005L107 6.00029Z" fill="#FDE800"/>
<path d="M6.99951 6.00021L7.03804 56.0005L57 56.0005L57 6.00026L6.99951 6.00021Z" fill="#FDE800"/>
<path d="M7.03852 106L7.03852 156L57 156L57 106L7.03852 106Z" fill="#FDE800"/>
<path d="M57 156L7.03852 156L7.03852 162L57 162L57 156Z" fill="#FF8080"/>
<path d="M1.00001 6.00021L1 56.0005L7.03804 56.0005L6.99951 6.00021L1.00001 6.00021Z" fill="#A5ADFF"/>
<path d="M157 106L157 156L163 156L163 106L157 106Z" fill="#FFCE80"/>
<path d="M157 56.0005L157 106L163 106L163 56.0004L157 56.0005Z" fill="#80FF88"/>
<path d="M157 6.00029L157 56.0005L163 56.0004L163 6.00019L157 6.00029Z" fill="#FF8080"/>
<path d="M1.03846 106L1.03846 156L7.03852 156L7.03852 106L1.03846 106Z" fill="#A5ADFF"/>
<path d="M1.03849 56.0005L1.03846 106L7.03852 106L7.03804 56.0005L1.03849 56.0005Z" fill="#A5ADFF"/>
<path d="M107 156L57.0385 156L57.0385 162L107 162L107 156Z" fill="#FF8080"/>
<path d="M157 156L107.038 156L107.038 162L157 162L157 156Z" fill="#80FF88"/>
<path d="M56.961 0.000199032L6.99951 0.000198436L6.99951 6.00021L56.961 6.00021L56.961 0.000199032Z" fill="#FFCE80"/>
<path d="M106.961 0.000199628L56.9995 0.000199032L57 6.00026L106.961 6.00021L106.961 0.000199628Z" fill="#FFCE80"/>
<path d="M156.961 0.000307036L106.999 0.00030644L107 6.00029L156.961 6.00031L156.961 0.000307036Z" fill="#80FF88"/>
<path d="M7.03852 156L6.99951 6.00021M7.03852 156L157 156M7.03852 156L57 156M7.03852 156L7.03852 106M7.03852 156L7.03852 162L57 162L57 156M7.03852 156L1.03846 156L1.03846 106M6.99951 6.00021L157 6.00029M6.99951 6.00021L7.03804 56.0005M6.99951 6.00021L57 6.00026M6.99951 6.00021L1.00001 6.00021L1 56.0005L7.03804 56.0005M6.99951 6.00021L6.99951 0.000198436M6.99951 6.00021L56.961 6.00021L56.961 0.000199032M57 156L57 106M57 156L107 156M57 6.00026L57 106M57 6.00026L107 6.00029M57 6.00026L57 56.0005M57 6.00026L56.9995 0.000199032L106.961 0.000199628M57 6.00026L106.961 6.00021L106.961 0.000199628M107 156L157 156M107 156L107 106M107 156L57.0385 156L57.0385 162L107 162L107 156ZM107 6.00029L157 6.00029M107 6.00029L107 56.0005M107 6.00029L106.999 0.00030644L156.961 0.000307036M107 6.00029L156.961 6.00031L156.961 0.000307036M157 106L107 106M157 106L157 156M157 106L157 56.0005M157 106L163 106M7.03852 106L57 106M7.03852 106L7.03804 56.0005M7.03852 106L1.03846 106M157 56.0005L107 56.0005M157 56.0005L157 6.00029M157 56.0005L163 56.0004M7.03804 56.0005L57 56.0005M7.03804 56.0005L1.03849 56.0005L1.03846 106M157 156L157 6.00029M157 156L163 156L163 106M157 156L107.038 156L107.038 162L157 162L157 156ZM157 6.00029L163 6.00019L163 56.0004M107 56.0005L107 106M107 56.0005L57 56.0005M107 106L57 106M57 106L57 56.0005M163 106L163 56.0004M6.99951 0.000198436L156.961 0.000307036M6.99951 0.000198436L56.961 0.000199032M56.961 0.000199032L106.961 0.000199628M106.961 0.000199628L156.961 0.000307036" stroke="black" stroke-linecap="round" stroke-linejoin="round"/>
<path d="M131.939 142.097C132.525 142.683 133.475 142.683 134.061 142.097L143.607 132.551C144.192 131.965 144.192 131.015 143.607 130.43C143.021 129.844 142.071 129.844 141.485 130.43L133 138.915L124.515 130.43C123.929 129.844 122.979 129.844 122.393 130.43C121.808 131.015 121.808 131.965 122.393 132.551L131.939 142.097ZM134.061 24.9395C133.475 24.3537 132.525 24.3537 131.939 24.9395L122.393 34.4855C121.808 35.0712 121.808 36.021 122.393 36.6068C122.979 37.1926 123.929 37.1926 124.515 36.6068L133 28.1215L141.485 36.6068C142.071 37.1926 143.021 37.1926 143.607 36.6068C144.192 36.021 144.192 35.0712 143.607 34.4855L134.061 24.9395ZM134.5 141.036L134.5 26.0002L131.5 26.0002L131.5 141.036L134.5 141.036Z" fill="black"/>
</svg>
