<svg width="158" height="158" viewBox="0 0 158 158" fill="none" xmlns="http://www.w3.org/2000/svg">
<path d="M51.1948 151L101.195 151L101.195 101L51.1948 101L51.1948 151Z" fill="#FDE800"/>
<path d="M1.23287 51.0001L1.23335 101L51.1948 101L51.1948 51.0001L1.23287 51.0001Z" fill="#FDE800"/>
<path d="M101.195 101L101.195 51.0001L51.1948 51.0001L51.1948 101L101.195 101Z" fill="#FDE800"/>
<path d="M101.195 151L151.195 151L151.195 101L101.195 101L101.195 151Z" fill="#FDE800"/>
<path d="M151.195 0.999895L101.195 0.999894L101.195 51.0001L151.195 51.0001L151.195 0.999895Z" fill="#F1F1F1"/>
<path d="M151.195 151L151.195 0.999895L151.195 51.0001L101.195 51.0001L101.195 101L151.195 101L151.195 151Z" fill="#FDE800"/>
<path d="M101.195 0.999894L51.1948 0.999863L51.1948 51.0001L101.195 51.0001L101.195 0.999894Z" fill="#FDE800"/>
<path d="M1.19434 0.999817L1.23287 51.0001L51.1948 51.0001L51.1948 0.999863L1.19434 0.999817Z" fill="#FDE800"/>
<path d="M1.23335 101L1.23335 151L51.1948 151L51.1948 101L1.23335 101Z" fill="#F1F1F1"/>
<path d="M51.1948 151L1.23335 151L1.23335 157L51.1948 157L51.1948 151Z" fill="#FDE800"/>
<path d="M151.195 0.999895L151.195 51.0001L157.195 51L157.195 0.999788L151.195 0.999895Z" fill="#FDE800"/>
<path d="M1.23335 151L1.19434 0.999817M1.23335 151L151.195 151M1.23335 151L51.1948 151M1.23335 151L1.23335 101M1.23335 151L1.23335 157L51.1948 157L51.1948 151M1.19434 0.999817L151.195 0.999895M1.19434 0.999817L1.23287 51.0001M1.19434 0.999817L51.1948 0.999863M1.19434 0.999817L51.1558 0.999817M51.1948 151L51.1948 101M51.1948 151L101.195 151M51.1948 0.999863L51.1948 101M51.1948 0.999863L101.195 0.999894M51.1948 0.999863L51.1948 51.0001M51.1948 0.999863L101.156 0.999818M101.195 151L151.195 151M101.195 151L101.195 101M101.195 151L51.2334 151L51.2334 157M101.195 0.999894L151.195 0.999895M101.195 0.999894L101.195 51.0001M101.195 0.999894L151.156 0.99991M151.195 101L101.195 101M151.195 101L151.195 151M151.195 101L151.195 51.0001M1.23335 101L51.1948 101M1.23335 101L1.23287 51.0001M151.195 51.0001L101.195 51.0001M151.195 51.0001L151.195 0.999895M151.195 51.0001L157.195 51L157.195 0.999788L151.195 0.999895M1.23287 51.0001L51.1948 51.0001M151.195 151L151.195 0.999895M151.195 151L101.233 151M101.195 51.0001L101.195 101M101.195 51.0001L51.1948 51.0001M101.195 101L51.1948 101M51.1948 101L51.1948 51.0001" stroke="black" stroke-linecap="round" stroke-linejoin="round"/>
</svg>
