<svg width="164" height="158" viewBox="0 0 164 158" fill="none" xmlns="http://www.w3.org/2000/svg">
<path d="M57.3023 151L107.302 151L107.302 101L57.3023 101L57.3023 151Z" fill="#FDE800"/>
<path d="M7.34029 51L7.34077 101L57.3023 101L57.3023 51L7.34029 51Z" fill="#FDE800"/>
<path d="M107.302 101L107.302 51L57.3023 51L57.3023 101L107.302 101Z" fill="#FDE800"/>
<path d="M107.302 151L157.302 151L157.302 101L107.302 101L107.302 151Z" fill="#F1F1F1"/>
<path d="M157.302 1L107.302 1L107.302 51L157.302 51L157.302 1Z" fill="#FDE800"/>
<path d="M157.302 151L157.302 1L157.302 51L107.302 51L107.302 101L157.302 101L157.302 151Z" fill="#FDE800"/>
<path d="M107.302 1L57.3023 0.99997L57.3023 51L107.302 51L107.302 1Z" fill="#FDE800"/>
<path d="M7.30176 0.999924L7.34029 51L57.3023 51L57.3023 0.99997L7.30176 0.999924Z" fill="#F1F1F1"/>
<path d="M7.34077 101L7.34077 151L57.3023 151L57.3023 101L7.34077 101Z" fill="#F1F1F1"/>
<path d="M57.3023 151L7.34077 151L7.34077 157L57.3023 157L57.3023 151Z" fill="#FDE800"/>
<path d="M1.30226 0.999924L1.30225 51L7.34029 51L7.30176 0.999924L1.30226 0.999924Z" fill="#FDE800"/>
<path d="M157.302 101L157.302 151L163.302 151L163.302 101L157.302 101Z" fill="#FDE800"/>
<path d="M7.34077 151L7.30176 0.999924M7.34077 151L157.302 151M7.34077 151L57.3023 151M7.34077 151L7.34077 101M7.34077 151L7.34077 157L57.3023 157L57.3023 151M7.30176 0.999924L157.302 1M7.30176 0.999924L7.34029 51M7.30176 0.999924L57.3023 0.99997M7.30176 0.999924L1.30226 0.999924L1.30225 51L7.34029 51M57.3023 151L57.3023 101M57.3023 151L107.302 151M57.3023 0.99997L57.3023 101M57.3023 0.99997L107.302 1M57.3023 0.99997L57.3023 51M107.302 151L157.302 151M107.302 151L107.302 101M107.302 1L157.302 1M107.302 1L107.302 51M157.302 101L107.302 101M157.302 101L157.302 151M157.302 101L157.302 51M157.302 101L163.302 101L163.302 151L157.302 151M7.34077 101L57.3023 101M7.34077 101L7.34029 51M157.302 51L107.302 51M157.302 51L157.302 1M7.34029 51L57.3023 51M157.302 151L157.302 1M107.302 51L107.302 101M107.302 51L57.3023 51M107.302 101L57.3023 101M57.3023 101L57.3023 51" stroke="black" stroke-linecap="round" stroke-linejoin="round"/>
</svg>
