<svg width="158" height="163" viewBox="0 0 158 163" fill="none" xmlns="http://www.w3.org/2000/svg">
<path d="M150.651 55.9999V106H100.651V56L150.651 55.9999Z" fill="#FDE800"/>
<path d="M50.6515 6.00008L100.651 6.00004V56H50.6515V6.00008Z" fill="#FDE800"/>
<path d="M100.651 106H50.6515V56H100.651V106Z" fill="#FDE800"/>
<path d="M150.651 106V156L100.651 156V106H150.651Z" fill="#F1F1F1"/>
<path d="M0.651581 156V106H50.6515V156L0.651581 156Z" fill="#FDE800"/>
<path d="M150.651 156L0.651581 156L50.6515 156V106H100.651V156L150.651 156Z" fill="#FDE800"/>
<path d="M0.651581 106V56H50.6515V106H0.651581Z" fill="#FDE800"/>
<path d="M0.651581 6.00011L50.6515 6.00008V56H0.651581V6.00011Z" fill="#F1F1F1"/>
<path d="M100.651 6.00004L150.651 6V55.9999L100.651 56V6.00004Z" fill="#F1F1F1"/>
<path d="M150.651 55.9999V6L156.651 6.00011V55.9999H150.651Z" fill="#FDE800"/>
<path d="M0.651367 0H50.6515V6.00008L0.651581 6.00011L0.651367 0Z" fill="#FDE800"/>
<path d="M100.651 156L150.651 156V162H100.651V156Z" fill="#FDE800"/>
<path d="M150.651 6L0.651581 6.00011M150.651 6V156M150.651 6V55.9999M150.651 6L100.651 6.00004M150.651 6L156.651 6.00011V55.9999H150.651M0.651581 6.00011V156M0.651581 6.00011L50.6515 6.00008M0.651581 6.00011V56M0.651581 6.00011L0.651367 0H50.6515V6.00008M150.651 55.9999L100.651 56M150.651 55.9999V106M0.651581 56H100.651M0.651581 56V106M0.651581 56H50.6515M150.651 106V156M150.651 106H100.651M0.651581 106V156M0.651581 106H50.6515M100.651 156V106M100.651 156L150.651 156M100.651 156L50.6515 156M100.651 156V162H150.651V156M100.651 6.00004V56M100.651 6.00004L50.6515 6.00008M50.6515 156V106M50.6515 156L0.651581 156M50.6515 6.00008V56M150.651 156L0.651581 156M50.6515 106H100.651M50.6515 106V56M100.651 106V56M100.651 56H50.6515" stroke="black" stroke-linecap="round" stroke-linejoin="round"/>
</svg>
