<svg width="164" height="152" viewBox="0 0 164 152" fill="none" xmlns="http://www.w3.org/2000/svg">
<path d="M56.6118 151L106.612 151L106.612 101L56.6118 101L56.6118 151Z" fill="#FDE800"/>
<path d="M6.64986 51.0005L6.65034 101L56.6118 101L56.6118 51.0005L6.64986 51.0005Z" fill="#FDE800"/>
<path d="M106.612 101L106.612 51.0005L56.6118 51.0005L56.6118 101L106.612 101Z" fill="#FDE800"/>
<path d="M106.612 151L156.612 151L156.612 101L106.612 101L106.612 151Z" fill="#F1F1F1"/>
<path d="M156.612 1.00029L106.612 1.00029L106.612 51.0005L156.612 51.0005L156.612 1.00029Z" fill="#F1F1F1"/>
<path d="M156.612 151L156.612 1.00029L156.612 51.0005L106.612 51.0005L106.612 101L156.612 101L156.612 151Z" fill="#FDE800"/>
<path d="M106.612 1.00029L56.6118 1.00026L56.6118 51.0005L106.612 51.0005L106.612 1.00029Z" fill="#FDE800"/>
<path d="M6.61133 1.00021L6.64986 51.0005L56.6118 51.0005L56.6118 1.00026L6.61133 1.00021Z" fill="#F1F1F1"/>
<path d="M6.65034 101L6.65034 151L56.6118 151L56.6118 101L6.65034 101Z" fill="#F1F1F1"/>
<path d="M0.611829 1.00021L0.611818 51.0005L6.64986 51.0005L6.61133 1.00021L0.611829 1.00021Z" fill="#FDE800"/>
<path d="M156.612 101L156.612 151L162.612 151L162.612 101L156.612 101Z" fill="#FDE800"/>
<path d="M156.612 1.00029L156.612 51.0005L162.612 51.0004L162.612 1.00019L156.612 1.00029Z" fill="#FDE800"/>
<path d="M0.650276 101L0.650276 151L6.65034 151L6.65034 101L0.650276 101Z" fill="#FDE800"/>
<path d="M6.65034 151L6.61133 1.00021M6.65034 151L156.612 151M6.65034 151L56.6118 151M6.65034 151L6.65034 101M6.65034 151L0.650276 151L0.650276 101L6.65034 101M6.61133 1.00021L156.612 1.00029M6.61133 1.00021L6.64986 51.0005M6.61133 1.00021L56.6118 1.00026M6.61133 1.00021L0.611829 1.00021L0.611818 51.0005L6.64986 51.0005M6.61133 1.00021L56.5728 1.00021M56.6118 151L56.6118 101M56.6118 151L106.612 151M56.6118 1.00026L56.6118 101M56.6118 1.00026L106.612 1.00029M56.6118 1.00026L56.6118 51.0005M56.6118 1.00026L106.573 1.00021M106.612 151L156.612 151M106.612 151L106.612 101M106.612 151L56.6503 151M106.612 1.00029L156.612 1.00029M106.612 1.00029L106.612 51.0005M106.612 1.00029L156.573 1.00031M156.612 101L106.612 101M156.612 101L156.612 151M156.612 101L156.612 51.0005M156.612 101L162.612 101L162.612 151L156.612 151M6.65034 101L56.6118 101M6.65034 101L6.64986 51.0005M156.612 51.0005L106.612 51.0005M156.612 51.0005L156.612 1.00029M156.612 51.0005L162.612 51.0004L162.612 1.00019L156.612 1.00029M6.64986 51.0005L56.6118 51.0005M6.64986 51.0005L0.650307 51.0005M156.612 151L156.612 1.00029M156.612 151L106.65 151M106.612 51.0005L106.612 101M106.612 51.0005L56.6118 51.0005M106.612 101L56.6118 101M56.6118 101L56.6118 51.0005" stroke="black" stroke-linecap="round" stroke-linejoin="round"/>
</svg>
