<svg width="164" height="152" viewBox="0 0 164 152" fill="none" xmlns="http://www.w3.org/2000/svg">
<path d="M56.5581 151L106.558 151L106.558 101L56.5581 101L56.5581 151Z" fill="#FDE800"/>
<path d="M6.59615 51.0005L6.59663 101L56.5581 101L56.5581 51.0005L6.59615 51.0005Z" fill="#FDE800"/>
<path d="M106.558 101L106.558 51.0005L56.5581 51.0005L56.5581 101L106.558 101Z" fill="#FDE800"/>
<path d="M106.558 151L156.558 151L156.558 101L106.558 101L106.558 151Z" fill="#FDE800"/>
<path d="M156.558 1.00029L106.558 1.00029L106.558 51.0005L156.558 51.0005L156.558 1.00029Z" fill="#F1F1F1"/>
<path d="M156.558 151L156.558 1.00029L156.558 51.0005L106.558 51.0005L106.558 101L156.558 101L156.558 151Z" fill="#FDE800"/>
<path d="M106.558 1.00029L56.5581 1.00026L56.5581 51.0005L106.558 51.0005L106.558 1.00029Z" fill="#FDE800"/>
<path d="M6.55762 1.00021L6.59615 51.0005L56.5581 51.0005L56.5581 1.00026L6.55762 1.00021Z" fill="#F1F1F1"/>
<path d="M6.59663 101L6.59663 151L56.5581 151L56.5581 101L6.59663 101Z" fill="#FDE800"/>
<path d="M0.558118 1.00021L0.558107 51.0005L6.59615 51.0005L6.55762 1.00021L0.558118 1.00021Z" fill="#FDE800"/>
<path d="M156.558 1.00029L156.558 51.0005L162.558 51.0004L162.558 1.00019L156.558 1.00029Z" fill="#FDE800"/>
<path d="M6.59663 151L6.55762 1.00021M6.59663 151L156.558 151M6.59663 151L56.5581 151M6.59663 151L6.59663 101M6.55762 1.00021L156.558 1.00029M6.55762 1.00021L6.59615 51.0005M6.55762 1.00021L56.5581 1.00026M6.55762 1.00021L0.558118 1.00021L0.558107 51.0005L6.59615 51.0005M6.55762 1.00021L56.5191 1.00021M56.5581 151L56.5581 101M56.5581 151L106.558 151M56.5581 1.00026L56.5581 101M56.5581 1.00026L106.558 1.00029M56.5581 1.00026L56.5581 51.0005M56.5581 1.00026L106.519 1.00021M106.558 151L156.558 151M106.558 151L106.558 101M106.558 151L56.5966 151M106.558 1.00029L156.558 1.00029M106.558 1.00029L106.558 51.0005M106.558 1.00029L156.519 1.00031M156.558 101L106.558 101M156.558 101L156.558 151M156.558 101L156.558 51.0005M6.59663 101L56.5581 101M6.59663 101L6.59615 51.0005M156.558 51.0005L106.558 51.0005M156.558 51.0005L156.558 1.00029M156.558 51.0005L162.558 51.0004L162.558 1.00019L156.558 1.00029M6.59615 51.0005L56.5581 51.0005M6.59615 51.0005L0.596596 51.0005M156.558 151L156.558 1.00029M156.558 151L106.597 151M106.558 51.0005L106.558 101M106.558 51.0005L56.5581 51.0005M106.558 101L56.5581 101M56.5581 101L56.5581 51.0005" stroke="black" stroke-linecap="round" stroke-linejoin="round"/>
</svg>
