<svg width="158" height="163" viewBox="0 0 158 163" fill="none" xmlns="http://www.w3.org/2000/svg">
<path d="M56.9219 156L106.922 156L106.922 106L56.9219 106L56.9219 156Z" fill="#FDE800"/>
<path d="M6.95991 56L6.9604 106L56.9219 106L56.9219 56L6.95991 56Z" fill="#FDE800"/>
<path d="M106.922 106L106.922 56L56.9219 56L56.9219 106L106.922 106Z" fill="#FDE800"/>
<path d="M106.922 156L156.922 156L156.922 106L106.922 106L106.922 156Z" fill="#F1F1F1"/>
<path d="M156.922 5.9998L106.922 5.9998L106.922 56L156.922 56L156.922 5.9998Z" fill="#F1F1F1"/>
<path d="M156.922 156L156.922 5.9998L156.922 56L106.922 56L106.922 106L156.922 106L156.922 156Z" fill="#FDE800"/>
<path d="M106.922 5.9998L56.9219 5.99977L56.9219 56L106.922 56L106.922 5.9998Z" fill="#FDE800"/>
<path d="M6.92139 5.99973L6.95991 56L56.9219 56L56.9219 5.99977L6.92139 5.99973Z" fill="#F1F1F1"/>
<path d="M6.9604 106L6.9604 156L56.9219 156L56.9219 106L6.9604 106Z" fill="#F1F1F1"/>
<path d="M0.921888 5.99973L0.921876 56L6.95991 56L6.92139 5.99973L0.921888 5.99973Z" fill="#FDE800"/>
<path d="M0.960335 106L0.960334 156L6.9604 156L6.9604 106L0.960335 106Z" fill="#FDE800"/>
<path d="M156.922 156L106.922 156L106.922 162L156.922 162L156.922 156Z" fill="#FDE800"/>
<path d="M156.883 -0.000181246L106.921 -0.000181841L106.922 5.9998L156.883 5.99982L156.883 -0.000181246Z" fill="#FDE800"/>
<path d="M6.9604 156L6.92139 5.99973M6.9604 156L156.922 156M6.9604 156L56.9219 156M6.9604 156L6.9604 106M6.9604 156L0.960334 156L0.960335 106L6.9604 106M6.92139 5.99973L156.922 5.9998M6.92139 5.99973L6.95991 56M6.92139 5.99973L56.9219 5.99977M6.92139 5.99973L0.921888 5.99973L0.921876 56L6.95991 56M6.92139 5.99973L56.8829 5.99973M56.9219 156L56.9219 106M56.9219 156L106.922 156M56.9219 5.99977L56.9219 106M56.9219 5.99977L106.922 5.9998M56.9219 5.99977L56.9219 56M56.9219 5.99977L106.883 5.99973L106.921 -0.000181841M106.922 156L156.922 156M106.922 156L106.922 106M106.922 156L56.9604 156M106.922 156L106.922 162L156.922 162L156.922 156M106.922 5.9998L156.922 5.9998M106.922 5.9998L106.922 56M106.922 5.9998L106.921 -0.000181841M106.922 5.9998L156.883 5.99982L156.883 -0.000181246L106.921 -0.000181841M156.922 106L106.922 106M156.922 106L156.922 156M156.922 106L156.922 56M6.9604 106L56.9219 106M6.9604 106L6.95991 56M156.922 56L106.922 56M156.922 56L156.922 5.9998M6.95991 56L56.9219 56M6.95991 56L0.960366 56M156.922 156L156.922 5.9998M106.922 56L106.922 106M106.922 56L56.9219 56M106.922 106L56.9219 106M56.9219 106L56.9219 56" stroke="black" stroke-linecap="round" stroke-linejoin="round"/>
</svg>
